<?xml version="1.0" encoding="UTF-8" standalone="no"?>
<svg
   width="96"
   height="96"
   viewBox="0 0 96 96"
   fill="none"
   version="1.1"
   id="svg6"
   sodipodi:docname="LI-logo.svg"
   inkscape:export-filename="..\personalPage\content\page\links\LI-logo.svg"
   inkscape:export-xdpi="96"
   inkscape:export-ydpi="96"
   xmlns:inkscape="http://www.inkscape.org/namespaces/inkscape"
   xmlns:sodipodi="http://sodipodi.sourceforge.net/DTD/sodipodi-0.dtd"
   xmlns="http://www.w3.org/2000/svg"
   xmlns:svg="http://www.w3.org/2000/svg">
  <defs
     id="defs10">
    <clipPath
       clipPathUnits="userSpaceOnUse"
       id="clipPath227">
      <rect
         style="fill:#000000"
         id="rect229"
         width="96.099174"
         height="96.099174"
         x="283.90082"
         y="0" />
    </clipPath>
  </defs>
  <sodipodi:namedview
     id="namedview8"
     pagecolor="#ffffff"
     bordercolor="#000000"
     borderopacity="0.25"
     inkscape:showpageshadow="2"
     inkscape:pageopacity="0.0"
     inkscape:pagecheckerboard="0"
     inkscape:deskcolor="#d1d1d1"
     showgrid="false" />
  <path
     fill-rule="evenodd"
     clip-rule="evenodd"
     d="m 380,7 v 82 c 0,1.8565 -0.738,3.637 -2.05,4.9497 C 376.637,95.2625 374.857,96 373,96 h -82 c -1.857,0 -3.637,-0.7375 -4.95,-2.0503 C 284.738,92.637 284,90.8565 284,89 V 7 c 0,-1.85652 0.738,-3.63699 2.05,-4.94975 C 287.363,0.737498 289.143,0 291,0 h 82 c 1.857,0 3.637,0.737498 4.95,2.05025 C 379.262,3.36301 380,5.14348 380,7 Z m -68.348,9.5554 C 312.531,17.871 313,19.4178 313,21 c 0.02,1.0562 -0.173,2.1056 -0.567,3.0854 -0.395,0.9798 -0.984,1.8699 -1.731,2.6169 -0.747,0.7469 -1.637,1.3354 -2.617,1.7303 -0.979,0.3948 -2.029,0.5878 -3.085,0.5674 -1.582,0 -3.129,-0.4692 -4.445,-1.3482 -1.315,-0.8791 -2.341,-2.1285 -2.946,-3.5903 -0.606,-1.4618 -0.764,-3.0704 -0.455,-4.6222 0.308,-1.5519 1.07,-2.9773 2.189,-4.0962 1.119,-1.1188 2.544,-1.8807 4.096,-2.1894 1.552,-0.3087 3.161,-0.1502 4.622,0.4553 1.462,0.6055 2.712,1.6308 3.591,2.9464 z M 312,36 V 82 H 298 V 36 Z m 54,18.34 c 0,-14 -9.26,-19.44 -17.3,-19.44 -8.04,0 -14.14,4.78 -15.52,7.6 H 333 V 36 h -13 v 46 h 14 V 57.65 c 0,-7.38 5,-10.65 9.89,-10.65 4,0 8.11,3.08 8.11,10.47 V 82 h 14 z"
     fill="#0a66c2"
     id="path2"
     clip-path="url(#clipPath227)"
     transform="translate(-284)" />
</svg>
